<svg width="44" height="30" viewBox="0 0 44 30" fill="none" xmlns="http://www.w3.org/2000/svg">
<path d="M42.847 4.707C42.6028 3.79862 42.1272 2.97622 41.4708 2.32723C40.7957 1.65828 39.9684 1.17976 39.0669 0.936841C35.6928 0.00929194 22.1749 0.00929215 22.1749 0.00929215C16.5395 -0.0575801 10.9054 0.236541 5.30454 0.889995C4.40297 1.15086 3.57719 1.64007 2.90065 2.31411C2.23589 2.9812 1.75439 3.80381 1.50287 4.70513C0.898645 8.10004 0.605074 11.5472 0.626109 15C0.604549 18.4497 0.8974 21.8957 1.50287 25.2948C1.749 26.1924 2.22871 27.0113 2.89526 27.6728C3.56181 28.3342 4.39185 28.812 5.30454 29.065C8.72354 29.9907 22.1749 29.9907 22.1749 29.9907C27.8175 30.0576 33.4588 29.7635 39.0669 29.11C39.9684 28.8671 40.7957 28.3885 41.4708 27.7196C42.127 27.0707 42.6021 26.2482 42.8452 25.3398C43.4652 21.9462 43.7667 18.4977 43.7453 15.0431C43.7919 11.5739 43.4909 8.10907 42.847 4.70513V4.707ZM17.8774 21.416V8.58584L29.1243 15.0019L17.8774 21.416Z" fill="#41FF91"/>
</svg>
