<svg width="36" height="30" viewBox="0 0 36 30" fill="none" xmlns="http://www.w3.org/2000/svg">
<path d="M35.625 3.56363C34.3149 4.14942 32.8892 4.57102 31.4207 4.73522C32.9454 3.79633 34.0871 2.31303 34.6317 0.563627C33.201 1.44583 31.6337 2.06444 29.9993 2.39203C29.3162 1.63505 28.49 1.032 27.5722 0.620465C26.6545 0.208931 25.6648 -0.00227123 24.6648 1.84189e-05C20.6189 1.84189e-05 17.3651 3.39942 17.3651 7.57102C17.3651 8.15682 17.4336 8.74262 17.5449 9.30623C11.4868 8.97782 6.08378 5.97783 2.49174 1.38463C1.83723 2.54343 1.49424 3.86285 1.49847 5.20564C1.49847 7.83285 2.78715 10.1494 4.75228 11.5118C3.5942 11.4646 2.46324 11.1346 1.45137 10.5488V10.642C1.45137 14.321 3.96024 17.3698 7.30396 18.071C6.67614 18.2401 6.03029 18.3265 5.38164 18.3284C4.90641 18.3284 4.45687 18.2796 4.00305 18.213C4.92782 21.213 7.62078 23.392 10.8275 23.463C8.31864 25.5 5.17614 26.6982 1.76391 26.6982C1.15168 26.6982 0.586543 26.676 0 26.605C3.23669 28.7574 7.07705 30 11.2128 30C24.6391 30 31.9859 18.4704 31.9859 8.46303C31.9859 8.13463 31.9859 7.80623 31.9645 7.47782C33.3859 6.39942 34.6317 5.06362 35.625 3.56363Z" fill="#41FF91"/>
</svg>
