<svg width="29" height="30" viewBox="0 0 29 30" fill="none" xmlns="http://www.w3.org/2000/svg">
<path fill-rule="evenodd" clip-rule="evenodd" d="M9.13992 0.09C10.6395 0.0163636 11.1176 0 14.9375 0C18.7574 0 19.2355 0.0177273 20.7338 0.09C22.2321 0.162273 23.2548 0.417273 24.1497 0.786818C25.0868 1.16455 25.9369 1.755 26.6401 2.51864C27.356 3.26727 27.9082 4.17273 28.2611 5.17364C28.6088 6.12818 28.8466 7.21909 28.9156 8.81455C28.9847 10.4168 29 10.9268 29 15C29 19.0745 28.9834 19.5845 28.9156 21.1841C28.8479 22.7795 28.6088 23.8705 28.2611 24.825C27.9082 25.826 27.355 26.733 26.6401 27.4827C25.9369 28.2464 25.0868 28.8355 24.1497 29.2118C23.2548 29.5827 22.2321 29.8364 20.7364 29.91C19.2355 29.9836 18.7574 30 14.9375 30C11.1176 30 10.6395 29.9823 9.13992 29.91C7.64418 29.8377 6.62145 29.5827 5.72656 29.2118C4.78811 28.8354 3.93784 28.2453 3.23494 27.4827C2.51952 26.7336 1.96589 25.8271 1.61264 24.8264C1.26619 23.8718 1.02841 22.7809 0.959375 21.1855C0.890341 19.5832 0.875 19.0732 0.875 15C0.875 10.9255 0.891619 10.4155 0.959375 8.81727C1.02713 7.21909 1.26619 6.12818 1.61264 5.17364C1.96641 4.17284 2.52046 3.26634 3.23622 2.51727C3.93812 1.75432 4.78754 1.16379 5.72528 0.786818C6.62017 0.417273 7.6429 0.163636 9.13864 0.09H9.13992ZM20.62 2.79C19.1371 2.71773 18.6922 2.70273 14.9375 2.70273C11.1828 2.70273 10.7379 2.71773 9.25497 2.79C7.88324 2.85682 7.1392 3.10091 6.64318 3.30682C5.98736 3.57955 5.51818 3.90273 5.02599 4.42773C4.55943 4.91189 4.20037 5.50129 3.97514 6.15273C3.7821 6.68182 3.55327 7.47545 3.49063 8.93864C3.42287 10.5205 3.40881 10.995 3.40881 15C3.40881 19.005 3.42287 19.4795 3.49063 21.0614C3.55327 22.5245 3.7821 23.3182 3.97514 23.8473C4.20014 24.4977 4.55938 25.0882 5.02599 25.5723C5.47983 26.07 6.03338 26.4532 6.64318 26.6932C7.1392 26.8991 7.88324 27.1432 9.25497 27.21C10.7379 27.2823 11.1815 27.2973 14.9375 27.2973C18.6935 27.2973 19.1371 27.2823 20.62 27.21C21.9918 27.1432 22.7358 26.8991 23.2318 26.6932C23.8876 26.4205 24.3568 26.0973 24.849 25.5723C25.3156 25.0882 25.6749 24.4977 25.8999 23.8473C26.0929 23.3182 26.3217 22.5245 26.3844 21.0614C26.4521 19.4795 26.4662 19.005 26.4662 15C26.4662 10.995 26.4521 10.5205 26.3844 8.93864C26.3217 7.47545 26.0929 6.68182 25.8999 6.15273C25.6442 5.45318 25.3412 4.95273 24.849 4.42773C24.3951 3.9301 23.8425 3.54711 23.2318 3.30682C22.7358 3.10091 21.9918 2.85682 20.62 2.79ZM13.1413 19.6241C14.1445 20.0695 15.2614 20.1296 16.3015 19.7942C17.3415 19.4587 18.2401 18.7485 18.8438 17.7849C19.4475 16.8212 19.7188 15.6639 19.6114 14.5106C19.504 13.3573 19.0246 12.2795 18.255 11.4614C17.7644 10.9384 17.1712 10.5379 16.518 10.2888C15.8649 10.0397 15.1682 9.94822 14.4779 10.0208C13.7877 10.0935 13.1211 10.3284 12.5262 10.7088C11.9313 11.0892 11.4228 11.6056 11.0375 12.2207C10.6521 12.8359 10.3994 13.5345 10.2975 14.2663C10.1957 14.9981 10.2472 15.7449 10.4484 16.453C10.6496 17.161 10.9955 17.8127 11.4611 18.361C11.9268 18.9093 12.5006 19.3407 13.1413 19.6241ZM9.82642 9.54818C10.4976 8.83224 11.2944 8.26432 12.1714 7.87686C13.0484 7.48939 13.9883 7.28996 14.9375 7.28996C15.8867 7.28996 16.8266 7.48939 17.7036 7.87686C18.5806 8.26432 19.3774 8.83224 20.0486 9.54818C20.7198 10.2641 21.2522 11.1141 21.6154 12.0495C21.9787 12.9849 22.1657 13.9875 22.1657 15C22.1657 16.0125 21.9787 17.0151 21.6154 17.9505C21.2522 18.8859 20.7198 19.7359 20.0486 20.4518C18.693 21.8977 16.8545 22.71 14.9375 22.71C13.0205 22.71 11.182 21.8977 9.82642 20.4518C8.47088 19.0059 7.70934 17.0448 7.70934 15C7.70934 12.9552 8.47088 10.9941 9.82642 9.54818ZM23.7688 8.43818C23.9351 8.27082 24.0682 8.06956 24.1603 7.84633C24.2524 7.62309 24.3016 7.38241 24.3049 7.13854C24.3083 6.89467 24.2657 6.65257 24.1797 6.42656C24.0938 6.20055 23.9662 5.99524 23.8045 5.82278C23.6428 5.65032 23.4503 5.51421 23.2385 5.42252C23.0266 5.33083 22.7996 5.28542 22.571 5.28898C22.3423 5.29253 22.1167 5.34498 21.9074 5.44322C21.6981 5.54146 21.5095 5.68349 21.3526 5.86091C21.0474 6.20595 20.8804 6.66426 20.8868 7.13854C20.8933 7.61283 21.0728 8.06574 21.3873 8.40115C21.7017 8.73656 22.1263 8.92804 22.571 8.93495C23.0156 8.94187 23.4453 8.76367 23.7688 8.43818Z" fill="#41FF91"/>
</svg>
