<?xml version="1.0" encoding="UTF-8" standalone="no" ?>
<!DOCTYPE svg PUBLIC "-//W3C//DTD SVG 1.1//EN" "http://www.w3.org/Graphics/SVG/1.1/DTD/svg11.dtd">
<svg xmlns="http://www.w3.org/2000/svg" xmlns:xlink="http://www.w3.org/1999/xlink" version="1.1" width="110" height="100" viewBox="0 0 1280 1024" xml:space="preserve">
<desc>Created with Fabric.js 4.4.0</desc>
<defs>
</defs>
<g transform="matrix(1 0 0 1 640 512)" id="background-logo"  >
<rect style="stroke: none; stroke-width: 0; stroke-dasharray: none; stroke-linecap: butt; stroke-dashoffset: 0; stroke-linejoin: miter; stroke-miterlimit: 4; fill: rgb(255,255,255); fill-opacity: 0; fill-rule: nonzero; opacity: 1;"  paint-order="stroke"  x="-640" y="-512" rx="0" ry="0" width="1280" height="1024" />
</g>
<g transform="matrix(3.772910681546736 0 0 3.772910681546736 640.5309812907494 512.8023717282434)" id="logo-logo"  >
<g style=""  paint-order="stroke"   >
		<g transform="matrix(0.7260755782642841 0 0 0.7260755782642843 0 0)"  >
<linearGradient id="SVGID_1_2_2_2_56927" gradientUnits="userSpaceOnUse" gradientTransform="matrix(1 0 0 1 0 0)"  x1="264.92" y1="247.23" x2="60.39" y2="33.97">
<stop offset="0%" style="stop-color:rgb(16,205,163);stop-opacity: 1"/>
<stop offset="100%" style="stop-color:rgb(181,249,208);stop-opacity: 1"/>
</linearGradient>
<path style="stroke: none; stroke-width: 1; stroke-dasharray: none; stroke-linecap: butt; stroke-dashoffset: 0; stroke-linejoin: miter; stroke-miterlimit: 4; fill: url(#SVGID_1_2_2_2_56927); fill-rule: evenodd; opacity: 1;"  paint-order="stroke"  transform=" translate(-176.096524730906, -180.1245755578504)" d="M 79.56 268.34 L 79.68 268.34 L 82.16000000000001 246.24999999999997 C 79.99000000000001 245.69999999999996 78.04 244.56999999999996 76.51 243.03999999999996 C 74.30000000000001 240.82999999999996 72.93 237.76999999999995 72.93 234.39999999999998 C 72.93 231.02999999999997 74.30000000000001 227.96999999999997 76.51 225.76 C 78.72 223.54999999999998 81.78 222.17999999999998 85.15 222.17999999999998 C 87.97 222.17999999999998 90.57000000000001 223.14 92.64 224.73999999999998 L 112.77 204.98 C 111.25 202.94 110.35 200.41 110.35 197.67 C 110.35 195.45999999999998 110.94 193.38 111.97 191.58999999999997 L 73.24000000000001 161.54999999999998 L 63.34000000000001 174.21999999999997 C 63.30000000000001 174.27999999999997 63.25000000000001 174.33999999999997 63.20000000000001 174.39999999999998 L 46.010000000000005 196.40999999999997 C 48.84 197.11999999999998 51.38 198.58999999999997 53.38 200.58999999999997 C 56.260000000000005 203.46999999999997 58.040000000000006 207.43999999999997 58.040000000000006 211.82999999999998 C 58.040000000000006 216.21999999999997 56.260000000000005 220.19 53.38000000000001 223.07 C 50.50000000000001 225.95 46.53000000000001 227.73 42.14000000000001 227.73 C 37.75000000000001 227.73 33.78000000000001 225.95 30.900000000000006 223.07 C 28.020000000000007 220.19 26.240000000000006 216.22 26.240000000000006 211.82999999999998 C 26.240000000000006 207.44 28.020000000000007 203.46999999999997 30.900000000000006 200.58999999999997 C 33.78000000000001 197.70999999999998 37.75000000000001 195.92999999999998 42.14000000000001 195.92999999999998 L 42.20000000000001 195.92999999999998 L 59.73000000000001 173.48999999999998 L 37.26000000000001 153.23999999999998 C 36.17000000000001 152.82999999999998 35.19000000000001 152.2 34.38000000000001 151.39 L 34.36000000000001 151.36999999999998 C 32.910000000000004 149.90999999999997 32.02000000000001 147.90999999999997 32.02000000000001 145.71999999999997 C 32.02000000000001 143.51999999999998 32.92000000000001 141.51999999999998 34.37000000000001 140.05999999999997 L 34.390000000000015 140.03999999999996 C 35.850000000000016 138.58999999999997 37.850000000000016 137.69999999999996 40.04000000000001 137.69999999999996 C 41.05000000000001 137.69999999999996 42.030000000000015 137.88999999999996 42.920000000000016 138.23999999999995 L 82.83000000000001 76.54999999999995 L 55.81000000000002 56.28999999999995 L 55.80000000000002 56.29999999999995 L 55.780000000000015 56.31999999999995 C 53.640000000000015 58.44999999999995 50.70000000000002 59.75999999999995 47.47000000000001 59.75999999999995 C 44.90000000000001 59.75999999999995 42.52000000000001 58.92999999999995 40.58000000000001 57.519999999999946 C 39.180000000000014 59.29999999999995 37.90000000000001 61.08999999999995 36.70000000000001 62.90999999999995 C 33.82000000000001 67.28999999999995 31.460000000000008 71.89999999999995 29.33000000000001 77.14999999999995 C 27.13000000000001 82.56999999999995 25.180000000000007 88.66999999999994 23.70000000000001 94.84999999999995 C 22.30000000000001 100.69999999999995 21.34000000000001 106.60999999999996 20.99000000000001 112.06999999999995 C 20.63000000000001 117.66999999999994 20.93000000000001 122.82999999999996 21.61000000000001 127.58999999999995 C 22.29000000000001 132.34999999999994 23.37000000000001 136.72999999999996 24.57000000000001 140.75999999999993 C 25.330000000000013 143.28999999999994 26.100000000000012 145.58999999999995 26.830000000000013 147.77999999999994 C 28.600000000000012 153.03999999999994 30.16000000000001 157.68999999999994 30.46000000000001 162.07999999999996 C 30.68000000000001 165.30999999999995 30.220000000000013 168.31999999999996 29.040000000000013 171.78999999999996 C 27.900000000000013 175.13999999999996 26.090000000000014 178.89999999999998 23.580000000000013 183.74999999999997 C 21.080000000000013 188.56999999999996 17.900000000000013 194.43999999999997 14.380000000000013 200.81999999999996 C 11.230000000000013 206.52999999999997 7.4900000000000135 213.23999999999995 3.7100000000000133 219.99999999999997 C 5.190000000000014 221.44999999999996 6.690000000000014 222.89999999999998 8.290000000000013 224.32999999999998 C 10.170000000000012 225.99999999999997 12.140000000000013 227.6 14.300000000000013 229.04 C 16.470000000000013 230.48999999999998 18.880000000000013 231.82 21.400000000000013 233.09 C 23.990000000000013 234.39000000000001 26.630000000000013 235.6 29.280000000000012 236.81 C 29.96000000000001 237.12 30.330000000000013 237.84 30.220000000000013 238.55 L 30.220000000000013 238.55 C 29.500000000000014 243.45000000000002 28.790000000000013 248.36 30.720000000000013 251.74 C 31.680000000000014 253.42000000000002 33.350000000000016 254.86 35.360000000000014 256.17 C 37.490000000000016 257.56 40.05000000000001 258.82 42.600000000000016 260.08000000000004 C 43.420000000000016 260.48 43.750000000000014 261.47 43.350000000000016 262.29 C 43.30000000000002 262.39000000000004 43.240000000000016 262.49 43.170000000000016 262.57 C 39.70000000000002 267.7 36.250000000000014 272.82 36.83000000000001 276.92 C 37.140000000000015 279.12 38.69000000000001 281.35 40.30000000000001 283.69 C 41.81000000000001 285.87 43.37000000000001 288.13 44.30000000000001 290.77 C 46.140000000000015 296.02 45.180000000000014 302.16999999999996 44.430000000000014 307.02 L 44.240000000000016 308.31 C 43.890000000000015 310.66 43.670000000000016 312.57 43.70000000000002 314.16 C 43.73000000000002 315.65000000000003 43.98000000000002 316.91 44.56000000000002 318.1 C 45.12000000000002 319.26000000000005 46.000000000000014 320.38 47.04000000000001 321.40000000000003 C 48.23000000000001 322.57000000000005 49.62000000000001 323.58000000000004 50.990000000000016 324.34000000000003 C 52.23000000000002 325.03000000000003 53.45000000000002 325.50000000000006 54.780000000000015 325.70000000000005 C 56.140000000000015 325.90000000000003 57.640000000000015 325.83000000000004 59.45000000000002 325.4200000000001 C 62.70000000000002 324.69000000000005 67.00000000000001 322.9000000000001 72.19000000000001 320.7300000000001 L 75.21000000000001 319.4700000000001 C 78.52000000000001 318.1000000000001 82.15 316.6400000000001 85.61000000000001 315.3400000000001 C 89.09000000000002 314.0400000000001 92.35000000000001 312.9200000000001 94.89000000000001 312.2500000000001 C 97.65000000000002 311.5200000000001 99.65000000000002 311.3000000000001 101.68000000000002 311.8000000000001 C 103.68000000000002 312.29000000000013 105.53000000000002 313.4300000000001 108.01000000000002 315.46000000000015 C 110.47000000000001 317.46000000000015 113.62000000000002 320.38000000000017 116.95000000000002 323.8000000000001 C 119.93000000000002 326.8600000000001 123.08000000000001 330.3300000000001 126.05000000000001 333.9400000000001 C 129.17000000000002 337.73000000000013 132.06 341.66000000000014 134.85000000000002 345.6500000000001 C 137.27 349.1200000000001 139.61 352.6500000000001 141.95000000000002 356.18000000000006 L 248.37 271.08000000000004 L 227.83 245.81000000000003 L 189.5 242.84000000000003 L 184.17 280.3 C 187.01 281.01 189.54 282.48 191.54999999999998 284.48 C 191.85 284.78000000000003 192.13 285.08000000000004 192.39999999999998 285.40000000000003 L 208.23 274.51000000000005 C 207.82999999999998 273.56000000000006 207.60999999999999 272.51000000000005 207.60999999999999 271.4200000000001 C 207.60999999999999 269.2200000000001 208.51 267.2200000000001 209.95999999999998 265.76000000000005 L 209.98 265.74000000000007 C 211.44 264.2900000000001 213.44 263.4000000000001 215.63 263.4000000000001 C 217.82999999999998 263.4000000000001 219.82999999999998 264.30000000000007 221.29 265.7500000000001 L 221.31 265.7700000000001 C 222.76 267.2300000000001 223.65 269.2300000000001 223.65 271.4200000000001 C 223.65 273.62000000000006 222.75 275.62000000000006 221.3 277.0800000000001 L 221.28 277.1000000000001 C 219.82 278.55000000000007 217.82 279.44000000000005 215.63 279.44000000000005 C 213.5 279.44000000000005 211.54999999999998 278.6000000000001 210.1 277.22 L 194.26999999999998 288.12 C 195.49999999999997 290.38 196.20999999999998 292.97 196.20999999999998 295.73 C 196.20999999999998 300.12 194.42999999999998 304.09000000000003 191.54999999999998 306.97 C 188.67 309.85 184.7 311.63000000000005 180.30999999999997 311.63000000000005 C 175.92 311.63000000000005 171.95 309.8500000000001 169.06999999999996 306.97 C 168.83999999999997 306.74 168.61999999999998 306.5 168.39999999999998 306.26000000000005 L 151.64 318.22 C 150.91 318.76000000000005 149.86999999999998 318.6 149.33999999999997 317.87 L 122.51999999999998 281.46000000000004 C 120.77999999999999 282.41 118.77999999999999 282.95000000000005 116.65999999999998 282.95000000000005 C 113.28999999999998 282.95000000000005 110.22999999999999 281.58000000000004 108.01999999999998 279.37000000000006 C 105.80999999999999 277.1600000000001 104.43999999999998 274.1000000000001 104.43999999999998 270.7300000000001 C 104.43999999999998 267.36000000000007 105.80999999999999 264.30000000000007 108.01999999999998 262.0900000000001 C 110.22999999999998 259.8800000000001 113.28999999999998 258.5100000000001 116.65999999999998 258.5100000000001 C 119.73999999999998 258.5100000000001 122.54999999999998 259.6500000000001 124.69999999999999 261.5300000000001 L 129.91 256.9800000000001 C 129.99 256.9000000000001 130.07999999999998 256.8300000000001 130.18 256.76000000000005 C 130.94 256.26000000000005 131.97 256.4800000000001 132.46 257.24000000000007 L 146.26000000000002 278.30000000000007 C 147.17000000000002 277.94000000000005 148.15 277.75000000000006 149.18 277.75000000000006 C 151.38 277.75000000000006 153.38 278.65000000000003 154.84 280.1000000000001 L 154.86 280.12000000000006 C 156.31 281.58000000000004 157.20000000000002 283.58000000000004 157.20000000000002 285.77000000000004 C 157.20000000000002 287.97 156.3 289.97 154.85000000000002 291.43000000000006 L 154.83 291.45000000000005 C 153.37 292.90000000000003 151.37 293.79 149.18 293.79 C 146.98000000000002 293.79 144.98000000000002 292.89000000000004 143.52 291.44 L 143.5 291.42 C 142.05 289.96000000000004 141.16 287.96000000000004 141.16 285.77000000000004 C 141.16 283.57000000000005 142.06 281.57000000000005 143.51 280.11 L 130.73999999999998 260.62 L 126.86999999999998 264 C 128.14 265.93 128.89 268.24 128.89 270.73 C 128.89 274.1 127.51999999999998 277.16 125.30999999999999 279.37 L 125.17999999999999 279.5 L 151.04 314.61 L 166.48999999999998 303.58000000000004 C 165.17 301.27000000000004 164.42 298.59000000000003 164.42 295.74000000000007 C 164.42 291.3500000000001 166.2 287.38000000000005 169.07999999999998 284.50000000000006 C 169.64 283.94000000000005 170.23999999999998 283.4200000000001 170.88 282.95000000000005 L 127.33 208.92000000000004 C 125.88 209.53000000000006 124.28 209.87000000000003 122.61 209.87000000000003 C 119.79 209.87000000000003 117.19 208.91000000000003 115.12 207.31000000000003 L 94.99000000000001 227.07000000000002 C 96.51 229.11 97.41000000000001 231.64000000000001 97.41000000000001 234.38000000000002 C 97.41000000000001 237.75000000000003 96.04 240.81000000000003 93.83000000000001 243.02000000000004 C 91.68 245.17000000000004 88.74000000000001 246.52000000000004 85.48000000000002 246.60000000000005 L 83.00000000000001 268.69000000000005 C 86.02000000000001 269.3500000000001 88.73000000000002 270.87000000000006 90.84000000000002 272.9800000000001 C 93.72000000000001 275.86000000000007 95.50000000000001 279.8300000000001 95.50000000000001 284.2200000000001 C 95.50000000000001 288.61000000000007 93.72000000000001 292.5800000000001 90.84000000000002 295.4600000000001 C 87.96000000000002 298.3400000000001 83.99000000000002 300.1200000000001 79.60000000000002 300.1200000000001 C 75.21000000000002 300.1200000000001 71.24000000000002 298.34000000000015 68.36000000000003 295.4600000000001 C 65.48000000000003 292.5800000000001 63.70000000000003 288.61000000000007 63.70000000000003 284.2200000000001 C 63.70000000000003 279.8300000000001 65.48000000000003 275.86000000000007 68.36000000000003 272.9800000000001 C 71.24000000000002 270.1000000000001 75.21000000000002 268.32000000000005 79.60000000000002 268.32000000000005 z M 180.31 131.45 L 189.83 139.73999999999998 C 191.18 138.71999999999997 192.85000000000002 138.10999999999999 194.66000000000003 138.10999999999999 C 196.86 138.10999999999999 198.86 139.01 200.32000000000002 140.45999999999998 L 200.34000000000003 140.48 C 201.79000000000002 141.94 202.68000000000004 143.94 202.68000000000004 146.13 C 202.68000000000004 147.54999999999998 202.31000000000003 148.88 201.66000000000003 150.04 L 213.44000000000003 160.29999999999998 L 209.09000000000003 113.94999999999999 L 180.30000000000004 131.44 z M 214.39 165.51 L 199.5 152.54 C 198.15 153.56 196.48 154.17 194.67 154.17 C 192.47 154.17 190.47 153.26999999999998 189.01 151.82 L 188.98999999999998 151.79999999999998 C 187.54 150.33999999999997 186.64999999999998 148.33999999999997 186.64999999999998 146.14999999999998 C 186.64999999999998 144.73 187.01999999999998 143.39999999999998 187.67 142.23999999999998 L 176.45 132.46999999999997 L 176.45 132.46999999999997 C 176.32 132.35999999999996 176.20999999999998 132.22999999999996 176.11999999999998 132.07999999999998 C 175.64999999999998 131.29999999999998 175.89999999999998 130.29 176.67999999999998 129.82 L 209.57999999999998 109.83 C 209.79999999999998 109.67999999999999 210.05999999999997 109.59 210.35 109.56 C 211.26 109.48 212.06 110.15 212.14 111.05 L 217.10999999999999 163.99 C 217.19 164.46 217.07 164.97 216.73 165.36 C 216.13 166.05 215.09 166.12 214.39999999999998 165.52 z M 290.03999999999996 149.67999999999998 L 263.59999999999997 196.45999999999998 C 263.15 197.24999999999997 262.15 197.52999999999997 261.35999999999996 197.08999999999997 C 260.9 196.82999999999998 260.60999999999996 196.37999999999997 260.53999999999996 195.89999999999998 L 260.53 195.89999999999998 L 252.14 139.93999999999997 C 252.01 139.03999999999996 252.63 138.19999999999996 253.52999999999997 138.06999999999996 C 253.78999999999996 138.02999999999997 254.04999999999998 138.05999999999997 254.28999999999996 138.13999999999996 L 289.06999999999994 147.20999999999995 C 289.94999999999993 147.43999999999994 290.47999999999996 148.33999999999995 290.24999999999994 149.21999999999994 C 290.19999999999993 149.38999999999993 290.12999999999994 149.55999999999995 290.03999999999996 149.69999999999993 z M 263.09 190.67999999999998 L 286.17999999999995 149.83999999999997 L 255.77999999999994 141.92 L 263.0899999999999 190.67999999999998 z M 332.04999999999995 156.26999999999998 L 331.68999999999994 134.77999999999997 L 311.2799999999999 163.58999999999997 L 325.88999999999993 162.84999999999997 C 326.1599999999999 161.14999999999998 326.9699999999999 159.60999999999996 328.13999999999993 158.43999999999997 L 328.1599999999999 158.41999999999996 C 329.2099999999999 157.36999999999995 330.5499999999999 156.61999999999995 332.0399999999999 156.27999999999997 z M 334.9 129.7 L 335.34 156.20999999999998 C 336.94 156.51999999999998 338.36999999999995 157.30999999999997 339.48999999999995 158.42 L 339.50999999999993 158.44 C 340.9599999999999 159.9 341.8499999999999 161.9 341.8499999999999 164.09 C 341.8499999999999 166.29 340.94999999999993 168.29 339.4999999999999 169.75 L 339.4799999999999 169.77 C 338.0199999999999 171.22 336.0199999999999 172.11 333.8299999999999 172.11 C 331.62999999999994 172.11 329.62999999999994 171.21 328.1699999999999 169.76000000000002 L 328.1499999999999 169.74 C 327.1699999999999 168.75 326.43999999999994 167.51000000000002 326.06999999999994 166.13 L 308.06999999999994 167.04 L 308.06999999999994 167.04 C 307.7199999999999 167.06 307.35999999999996 166.95999999999998 307.03999999999996 166.73999999999998 C 306.29999999999995 166.21999999999997 306.11999999999995 165.18999999999997 306.65 164.45 L 331.87 128.83999999999997 C 332.16 128.39 332.66 128.08999999999997 333.23 128.07999999999998 C 334.14000000000004 128.07 334.89000000000004 128.79 334.90000000000003 129.7 z M 291.94 205.23 L 300.04 219.28 L 309.45000000000005 205.1 L 291.94000000000005 205.23 z M 298.52 223.22 L 287.71 204.47 C 287.54999999999995 204.22 287.46 203.93 287.46 203.60999999999999 C 287.46 202.7 288.19 201.95999999999998 289.09999999999997 201.95999999999998 L 312.42999999999995 201.79 C 312.78 201.76999999999998 313.13999999999993 201.85 313.44999999999993 202.06 C 314.2099999999999 202.56 314.41999999999996 203.59 313.9099999999999 204.34 L 301.31999999999994 223.31 L 301.31999999999994 223.31 C 301.17999999999995 223.52 300.99999999999994 223.7 300.7699999999999 223.83 C 299.9799999999999 224.28 298.9799999999999 224.01000000000002 298.5199999999999 223.22 z M 208.32 222.63 L 240.95 235.56 L 237.72 184.15 L 208.32 222.63 z M 242.16 239.57999999999998 L 205.18 224.92999999999998 C 205.01000000000002 224.86999999999998 204.84 224.79 204.69 224.67 C 203.97 224.11999999999998 203.82999999999998 223.07999999999998 204.38 222.35999999999999 L 237.76 178.67 C 238.04 178.29 238.48 178.03 238.98999999999998 178 C 239.89999999999998 177.94 240.67999999999998 178.63 240.73999999999998 179.54 L 244.40999999999997 237.95 L 244.40999999999997 237.95 C 244.42999999999998 238.17999999999998 244.38999999999996 238.42999999999998 244.29999999999995 238.66 C 243.96999999999994 239.5 243.00999999999996 239.92 242.15999999999997 239.57999999999998 z M 271.9 249.83999999999997 L 268.79999999999995 246.21999999999997 C 267.65 246.84999999999997 266.34 247.21999999999997 264.93999999999994 247.21999999999997 C 262.73999999999995 247.21999999999997 260.73999999999995 246.31999999999996 259.2799999999999 244.86999999999998 L 259.25999999999993 244.84999999999997 C 257.80999999999995 243.38999999999996 256.91999999999996 241.38999999999996 256.91999999999996 239.19999999999996 C 256.91999999999996 237.36999999999995 257.53999999999996 235.67999999999995 258.59 234.31999999999996 L 252.62999999999997 227.36999999999998 L 258.54999999999995 261.83 L 271.91999999999996 249.85999999999999 z M 251.22999999999996 220.67999999999998 L 261.08 232.15999999999997 C 262.22999999999996 231.52999999999997 263.53999999999996 231.15999999999997 264.94 231.15999999999997 C 267.14 231.15999999999997 269.14 232.05999999999997 270.6 233.50999999999996 L 270.62 233.52999999999997 C 272.07 234.98999999999998 272.96 236.98999999999998 272.96 239.17999999999998 C 272.96 241.01 272.34 242.7 271.28999999999996 244.05999999999997 L 275.45 248.90999999999997 C 276.03 249.58999999999997 275.96 250.60999999999996 275.3 251.20999999999998 L 258.6 266.16999999999996 C 258.36 266.41999999999996 258.05 266.59 257.69 266.65 C 256.79 266.79999999999995 255.94 266.2 255.79 265.29999999999995 L 248.35999999999999 222.01999999999995 C 248.26999999999998 221.46999999999994 248.45999999999998 220.87999999999997 248.92 220.48999999999995 C 249.60999999999999 219.89999999999995 250.64999999999998 219.97999999999996 251.23999999999998 220.66999999999996 z M 174.53999999999996 192.92999999999998 L 189.33999999999997 222.60999999999999 L 206.27999999999997 200.95999999999998 L 174.52999999999997 192.92999999999998 z M 187.54999999999995 226.42 L 169.97999999999996 191.17999999999998 C 169.80999999999997 190.83999999999997 169.75999999999996 190.43999999999997 169.85999999999996 190.04 C 170.07999999999996 189.16 170.97999999999996 188.62 171.85999999999996 188.84 L 209.53999999999996 198.37 L 209.53999999999996 198.37 C 209.75999999999996 198.42000000000002 209.96999999999997 198.52 210.14999999999998 198.67000000000002 C 210.86999999999998 199.23000000000002 210.98999999999998 200.26000000000002 210.42999999999998 200.98000000000002 L 190.39999999999998 226.58 C 190.24999999999997 226.81 190.02999999999997 227.01000000000002 189.76 227.15 C 188.94 227.56 187.95 227.22 187.54999999999998 226.41 z M 243.28999999999996 116.01999999999998 L 258.78 118.93999999999998 C 259.19 117.96999999999998 259.78 117.08999999999999 260.52 116.34999999999998 L 260.53999999999996 116.32999999999998 C 261.99999999999994 114.87999999999998 263.99999999999994 113.98999999999998 266.18999999999994 113.98999999999998 C 268.38999999999993 113.98999999999998 270.38999999999993 114.88999999999999 271.84999999999997 116.33999999999997 L 271.86999999999995 116.35999999999997 C 273.28 117.77999999999997 274.16999999999996 119.71999999999997 274.2099999999999 121.84999999999997 L 294.4099999999999 125.64999999999996 L 285.0999999999999 76.09999999999997 L 243.27999999999992 116.02999999999997 z M 296.17999999999995 129.32999999999998 L 273.59999999999997 125.07999999999998 C 273.18999999999994 126.04999999999998 272.59999999999997 126.92999999999998 271.85999999999996 127.66999999999999 L 271.84 127.68999999999998 C 270.38 129.14 268.38 130.02999999999997 266.19 130.02999999999997 C 263.99 130.02999999999997 261.99 129.12999999999997 260.53 127.67999999999998 L 260.51 127.65999999999998 C 259.09999999999997 126.23999999999998 258.21 124.29999999999998 258.17 122.16999999999999 L 239.52 118.65999999999998 C 239.19 118.59999999999998 238.88000000000002 118.43999999999998 238.63000000000002 118.17999999999998 C 238.00000000000003 117.51999999999998 238.03000000000003 116.47999999999998 238.69000000000003 115.84999999999998 L 285.02000000000004 71.61999999999998 C 285.24000000000007 71.39999999999998 285.53000000000003 71.24999999999997 285.86 71.18999999999997 C 286.75 71.01999999999997 287.62 71.60999999999997 287.78000000000003 72.50999999999996 L 298.09000000000003 127.39999999999996 C 298.13000000000005 127.59999999999997 298.13000000000005 127.81999999999996 298.09000000000003 128.02999999999997 C 297.92 128.91999999999996 297.06000000000006 129.50999999999996 296.17 129.34999999999997 z M 326.23999999999995 83.38999999999999 L 347.53 58.789999999999985 C 348.13 58.09999999999999 349.16999999999996 58.02999999999999 349.84999999999997 58.61999999999998 C 350.21 58.929999999999986 350.4 59.359999999999985 350.41999999999996 59.79999999999998 L 352.16999999999996 99.30999999999997 C 352.21 100.21999999999997 351.49999999999994 100.98999999999998 350.59999999999997 101.02999999999997 C 350.24999999999994 101.04999999999997 349.91999999999996 100.94999999999997 349.64 100.76999999999997 L 326.56 85.90999999999997 C 325.79 85.41999999999997 325.57 84.39999999999996 326.06 83.62999999999997 C 326.12 83.53999999999996 326.18 83.45999999999997 326.25 83.38999999999997 z M 347.30999999999995 64.07 L 329.92999999999995 84.16 L 348.73999999999995 96.27 L 347.31999999999994 64.07 z M 286.5199999999999 4.839999999999996 L 303.4899999999999 36.12 L 317.0599999999999 11.179999999999996 L 286.51999999999987 4.839999999999996 z M 302.0299999999999 40.36 L 281.9199999999999 3.289999999999999 L 281.9199999999999 3.289999999999999 C 281.7399999999999 2.959999999999999 281.6699999999999 2.5699999999999994 281.7599999999999 2.169999999999999 C 281.9499999999999 1.279999999999999 282.8199999999999 0.7099999999999991 283.70999999999987 0.889999999999999 L 319.90999999999985 8.409999999999998 C 320.05999999999983 8.439999999999998 320.21999999999986 8.499999999999998 320.35999999999984 8.579999999999998 C 321.15999999999985 9.009999999999998 321.4499999999998 10.009999999999998 321.01999999999987 10.809999999999999 L 304.9999999999999 40.239999999999995 C 304.8599999999999 40.559999999999995 304.6099999999999 40.839999999999996 304.27999999999986 41.029999999999994 C 303.47999999999985 41.459999999999994 302.47999999999985 41.169999999999995 302.03999999999985 40.37 z M 233.0499999999999 19.4 C 234.1099999999999 32.22 235.1499999999999 44.86 236.2899999999999 57.51 C 238.0499999999999 57.75 239.6399999999999 58.58 240.8499999999999 59.79 L 240.86999999999992 59.81 C 242.3199999999999 61.27 243.20999999999992 63.27 243.20999999999992 65.46000000000001 C 243.20999999999992 67.66000000000001 242.30999999999992 69.66000000000001 240.85999999999993 71.12 L 240.83999999999992 71.14 C 239.9699999999999 72 238.91999999999993 72.67 237.73999999999992 73.06 C 238.24999999999991 78.28 238.77999999999992 83.52000000000001 239.34999999999994 88.77000000000001 L 264.44999999999993 45.54000000000001 L 233.03999999999994 19.390000000000015 z M 232.8999999999999 57.769999999999996 L 229.4299999999999 15.759999999999998 L 229.43999999999988 15.759999999999998 C 229.40999999999988 15.349999999999998 229.5299999999999 14.919999999999998 229.8099999999999 14.569999999999999 C 230.3899999999999 13.87 231.4299999999999 13.779999999999998 232.12999999999988 14.359999999999998 L 267.5499999999999 43.849999999999994 C 268.2199999999999 44.339999999999996 268.4199999999999 45.269999999999996 267.9999999999999 45.99999999999999 L 239.68999999999988 94.75999999999999 C 239.43999999999988 95.21 238.97999999999988 95.53999999999999 238.41999999999987 95.6 C 237.50999999999988 95.69999999999999 236.69999999999987 95.03999999999999 236.60999999999987 94.13 L 234.38999999999987 73.44 C 232.50999999999988 73.25 230.80999999999986 72.39999999999999 229.52999999999986 71.13 L 229.50999999999985 71.11 C 228.05999999999986 69.65 227.16999999999985 67.65 227.16999999999985 65.46 C 227.16999999999985 63.25999999999999 228.06999999999985 61.25999999999999 229.51999999999984 59.8 L 229.53999999999985 59.779999999999994 C 230.46999999999986 58.85999999999999 231.61999999999986 58.16 232.89999999999986 57.769999999999996 z M 190.6799999999999 21.449999999999996 L 209.5799999999999 0.529999999999994 C 210.1899999999999 -0.140000000000006 211.2299999999999 -0.20000000000000595 211.8999999999999 0.40999999999999404 C 212.2499999999999 0.729999999999994 212.4299999999999 1.159999999999994 212.43999999999988 1.5999999999999939 L 214.00999999999988 85.71 C 214.01999999999987 86.61999999999999 213.29999999999987 87.36999999999999 212.38999999999987 87.38 C 212.11999999999986 87.38 211.85999999999987 87.32 211.63999999999987 87.21 L 159.52999999999986 61.50999999999999 C 158.70999999999987 61.10999999999999 158.37999999999985 60.11999999999999 158.77999999999986 59.29999999999999 C 158.84999999999985 59.15999999999999 158.93999999999986 59.02999999999999 159.03999999999985 58.90999999999999 L 174.79999999999984 39.81999999999999 C 172.78999999999985 37.63999999999999 171.55999999999983 34.72999999999999 171.55999999999983 31.529999999999994 C 171.55999999999983 28.159999999999993 172.92999999999984 25.099999999999994 175.13999999999984 22.889999999999993 C 177.34999999999985 20.679999999999993 180.40999999999985 19.309999999999995 183.77999999999986 19.309999999999995 C 186.33999999999986 19.309999999999995 188.70999999999987 20.099999999999994 190.67999999999986 21.439999999999994 z M 209.2299999999999 5.819999999999995 L 193.1199999999999 23.64999999999999 C 194.9199999999999 25.77999999999999 195.9999999999999 28.52999999999999 195.9999999999999 31.52999999999999 C 195.9999999999999 34.89999999999999 194.62999999999988 37.959999999999994 192.41999999999987 40.16999999999999 C 190.20999999999987 42.37999999999999 187.14999999999986 43.749999999999986 183.77999999999986 43.749999999999986 C 181.41999999999985 43.749999999999986 179.20999999999987 43.079999999999984 177.33999999999986 41.91999999999999 L 162.84999999999985 59.469999999999985 L 210.66999999999985 83.05999999999999 L 209.21999999999986 5.809999999999988 z M 186.3499999999999 241.43 L 157.76999999999992 190.86 C 157.41999999999993 190.24 157.51999999999992 189.49 157.94999999999993 188.98000000000002 L 176.58999999999992 167.15000000000003 L 139.05999999999992 159.54000000000002 C 138.30999999999992 162.20000000000002 136.88999999999993 164.59000000000003 134.98999999999992 166.49 C 132.3799999999999 169.10000000000002 128.85999999999993 170.81 124.94999999999993 171.10000000000002 L 124.53999999999994 185.59000000000003 C 127.11999999999993 186.01000000000002 129.42999999999992 187.24000000000004 131.19999999999993 189.01000000000002 C 133.40999999999994 191.22000000000003 134.77999999999994 194.28000000000003 134.77999999999994 197.65000000000003 C 134.77999999999994 201.02000000000004 133.40999999999994 204.08000000000004 131.19999999999993 206.29000000000002 C 130.85999999999993 206.63000000000002 130.49999999999994 206.95000000000002 130.11999999999992 207.25000000000003 L 173.6699999999999 281.28000000000003 C 175.6799999999999 280.36 177.9099999999999 279.85 180.2699999999999 279.85 C 180.46999999999989 279.85 180.6699999999999 279.85 180.8599999999999 279.86 L 186.3299999999999 241.41000000000003 z M 126.5799999999999 113.66000000000001 L 125.8599999999999 139.5 C 129.4099999999999 139.97 132.5999999999999 141.61 135.0099999999999 144.02 C 137.8899999999999 146.9 139.6699999999999 150.87 139.6699999999999 155.26000000000002 C 139.6699999999999 155.61 139.6599999999999 155.96 139.6399999999999 156.3 L 176.1599999999999 163.70000000000002 L 155.5699999999999 132.02 C 155.2199999999999 131.48000000000002 155.2299999999999 130.82000000000002 155.52999999999992 130.3 L 180.39999999999992 87.54000000000002 L 141.1899999999999 96.06000000000002 C 141.24999999999991 96.63000000000001 141.2899999999999 97.22000000000001 141.2899999999999 97.81000000000002 C 141.2899999999999 102.20000000000002 139.5099999999999 106.17000000000002 136.6299999999999 109.05000000000001 C 134.0199999999999 111.66000000000001 130.49999999999991 113.37 126.58999999999992 113.66000000000001 z M 121.2699999999999 185.51 L 121.6799999999999 171.01999999999998 C 118.1299999999999 170.54999999999998 114.9399999999999 168.90999999999997 112.52999999999989 166.49999999999997 C 109.64999999999989 163.61999999999998 107.86999999999989 159.64999999999998 107.86999999999989 155.25999999999996 C 107.86999999999989 150.86999999999998 109.64999999999989 146.89999999999998 112.52999999999989 144.01999999999995 C 115.13999999999989 141.40999999999994 118.65999999999988 139.69999999999996 122.56999999999988 139.40999999999994 L 123.28999999999988 113.56999999999994 C 120.60999999999987 113.21999999999994 118.13999999999987 112.19999999999993 116.04999999999988 110.67999999999994 L 97.20999999999988 131.70999999999992 C 98.18999999999988 133.03999999999994 98.77999999999987 134.6899999999999 98.77999999999987 136.45999999999992 C 98.77999999999987 138.6599999999999 97.87999999999987 140.6599999999999 96.42999999999988 142.11999999999992 L 96.40999999999988 142.13999999999993 C 94.94999999999989 143.58999999999992 92.94999999999989 144.47999999999993 90.75999999999988 144.47999999999993 C 89.48999999999988 144.47999999999993 88.28999999999988 144.17999999999992 87.21999999999987 143.64999999999992 L 75.26999999999987 158.9399999999999 L 113.97999999999988 188.95999999999992 C 115.89999999999988 187.05999999999992 118.43999999999987 185.79999999999993 121.26999999999988 185.48999999999992 z M 71.61999999999989 158.26999999999998 L 71.64999999999989 158.23 L 71.6899999999999 158.17999999999998 L 84.61999999999989 141.61999999999998 C 83.4299999999999 140.21999999999997 82.71999999999989 138.40999999999997 82.71999999999989 136.45 C 82.71999999999989 134.25 83.61999999999989 132.25 85.06999999999988 130.79 L 85.08999999999988 130.76999999999998 C 86.54999999999987 129.32 88.54999999999987 128.42999999999998 90.73999999999988 128.42999999999998 C 92.19999999999987 128.42999999999998 93.56999999999988 128.81999999999996 94.74999999999989 129.51 L 113.58999999999989 108.47999999999999 C 111.02999999999989 105.66 109.46999999999989 101.91 109.46999999999989 97.79999999999998 C 109.46999999999989 93.40999999999998 111.24999999999989 89.43999999999998 114.12999999999988 86.55999999999999 C 117.00999999999988 83.67999999999999 120.97999999999988 81.89999999999999 125.36999999999988 81.89999999999999 C 129.75999999999988 81.89999999999999 133.72999999999988 83.67999999999999 136.60999999999987 86.55999999999999 C 138.34999999999988 88.29999999999998 139.68999999999988 90.43999999999998 140.46999999999989 92.82999999999998 L 177.5599999999999 84.75999999999999 L 128.2399999999999 67.78999999999999 C 127.3799999999999 67.49 126.9199999999999 66.55 127.2099999999999 65.69 C 127.27999999999989 65.47 127.39999999999989 65.28 127.53999999999989 65.12 L 172.5299999999999 8.610000000000007 L 123.38999999999989 33.95 C 124.08999999999989 35.74 124.47999999999989 37.690000000000005 124.47999999999989 39.730000000000004 C 124.47999999999989 44.120000000000005 122.69999999999989 48.09 119.8199999999999 50.970000000000006 C 116.9399999999999 53.85000000000001 112.9699999999999 55.63000000000001 108.5799999999999 55.63000000000001 C 105.9899999999999 55.63000000000001 103.53999999999989 55.01000000000001 101.3699999999999 53.91000000000001 L 45.6699999999999 140.02 L 45.689999999999905 140.04000000000002 L 45.70999999999991 140.06000000000003 C 47.15999999999991 141.52000000000004 48.04999999999991 143.52000000000004 48.04999999999991 145.71000000000004 C 48.04999999999991 147.91000000000003 47.14999999999991 149.91000000000003 45.69999999999991 151.37000000000003 L 45.67999999999991 151.39000000000004 C 44.759999999999906 152.31000000000003 43.619999999999905 153.00000000000006 42.34999999999991 153.39000000000004 L 61.759999999999906 170.87000000000003 L 71.6199999999999 158.25000000000003 z M 184.2499999999999 83.57999999999998 C 184.7699999999999 83.76999999999998 185.1799999999999 84.20999999999998 185.2999999999999 84.77999999999999 C 185.3999999999999 85.22999999999999 185.2999999999999 85.67999999999999 185.0699999999999 86.02999999999999 L 158.86999999999992 131.07 L 181.01999999999992 165.14 C 181.4399999999999 165.73999999999998 181.41999999999993 166.57 180.91999999999993 167.16 L 161.20999999999992 190.24 L 189.05999999999992 239.53 L 228.75999999999993 242.61 L 228.75999999999993 242.61 C 229.19999999999993 242.64000000000001 229.61999999999995 242.85000000000002 229.91999999999993 243.21 L 251.95999999999992 270.33 C 252.52999999999992 271.03999999999996 252.4099999999999 272.07 251.69999999999993 272.64 L 142.62999999999994 359.86 C 142.57999999999993 359.91 142.51999999999992 359.95 142.45999999999995 359.99 C 141.69999999999996 360.49 140.67999999999995 360.28000000000003 140.17999999999995 359.52 C 137.53999999999996 355.52 134.89999999999995 351.51 132.13999999999996 347.56 C 129.39999999999995 343.64 126.55999999999996 339.78000000000003 123.49999999999996 336.06 C 120.60999999999996 332.55 117.51999999999995 329.14 114.58999999999996 326.13 C 111.33999999999996 322.8 108.28999999999996 319.96999999999997 105.92999999999996 318.05 C 103.82999999999997 316.34000000000003 102.34999999999997 315.39 100.90999999999997 315.04 C 99.49999999999997 314.70000000000005 97.95999999999997 314.90000000000003 95.72999999999996 315.48 C 93.27999999999996 316.12 90.11999999999996 317.21000000000004 86.75999999999996 318.46000000000004 C 83.37999999999997 319.72 79.76999999999997 321.18000000000006 76.46999999999997 322.55 L 73.45999999999997 323.81 C 68.14999999999996 326.03000000000003 63.749999999999964 327.87 60.169999999999966 328.67 C 57.929999999999964 329.17 56.039999999999964 329.26 54.30999999999997 329 C 52.54999999999997 328.74 50.97999999999997 328.13 49.39999999999996 327.25 C 47.789999999999964 326.35 46.14999999999996 325.16 44.73999999999997 323.78 C 43.44999999999997 322.51 42.33999999999997 321.08 41.599999999999966 319.55999999999995 C 40.80999999999997 317.91999999999996 40.459999999999965 316.21999999999997 40.419999999999966 314.24999999999994 C 40.37999999999997 312.37999999999994 40.609999999999964 310.3299999999999 40.98999999999997 307.8399999999999 C 41.08999999999997 307.1499999999999 41.04999999999997 307.4899999999999 41.19999999999997 306.5299999999999 C 41.89999999999997 302.0399999999999 42.779999999999966 296.3499999999999 41.21999999999997 291.8699999999999 C 40.44999999999997 289.64999999999986 39.00999999999997 287.57999999999987 37.61999999999997 285.57999999999987 C 35.76999999999997 282.90999999999985 34.00999999999997 280.3699999999999 33.58999999999997 277.3899999999999 C 32.89999999999997 272.5099999999999 36.01999999999997 267.3699999999999 39.47999999999997 262.20999999999987 C 37.419999999999966 261.1799999999999 35.40999999999997 260.1199999999999 33.58999999999997 258.9399999999999 C 31.159999999999968 257.3599999999999 29.129999999999967 255.57999999999987 27.86999999999997 253.37999999999988 C 25.55999999999997 249.3399999999999 26.06999999999997 244.34999999999988 26.78999999999997 239.28999999999988 C 24.44999999999997 238.21999999999989 22.11999999999997 237.13999999999987 19.91999999999997 236.03999999999988 C 17.29999999999997 234.71999999999989 14.77999999999997 233.32999999999987 12.46999999999997 231.7799999999999 C 10.13999999999997 230.21999999999989 8.05999999999997 228.53999999999988 6.09999999999997 226.7999999999999 C 4.18999999999997 225.0999999999999 2.3499999999999703 223.2899999999999 0.5099999999999705 221.4799999999999 C -2.9531932455029164e-14 220.9699999999999 -0.14000000000002955 220.1699999999999 0.22999999999997045 219.49999999999991 C 3.9999999999999707 212.7599999999999 7.76999999999997 206.01999999999992 11.49999999999997 199.23999999999992 C 15.02999999999997 192.82999999999993 18.20999999999997 186.97999999999993 20.659999999999968 182.23999999999992 C 23.09999999999997 177.52999999999992 24.84999999999997 173.88999999999993 25.929999999999968 170.72999999999993 C 26.969999999999967 167.67999999999992 27.379999999999967 165.06999999999994 27.18999999999997 162.29999999999993 C 26.91999999999997 158.31999999999994 25.41999999999997 153.86999999999992 23.72999999999997 148.82999999999993 C 22.95999999999997 146.53999999999994 22.14999999999997 144.13999999999993 21.429999999999968 141.70999999999992 C 20.18999999999997 137.54999999999993 19.079999999999966 133.01999999999992 18.36999999999997 128.05999999999992 C 17.659999999999968 123.09999999999992 17.359999999999967 117.71999999999991 17.72999999999997 111.86999999999992 C 18.089999999999968 106.18999999999991 19.089999999999968 100.09999999999992 20.519999999999968 94.09999999999992 C 22.02999999999997 87.75999999999992 24.039999999999967 81.48999999999992 26.29999999999997 75.91999999999993 C 28.50999999999997 70.46999999999993 30.96999999999997 65.67999999999994 33.96999999999997 61.10999999999993 C 35.27999999999997 59.119999999999926 36.68999999999997 57.16999999999993 38.21999999999997 55.229999999999926 C 36.64999999999997 53.229999999999926 35.71999999999997 50.70999999999992 35.71999999999997 47.96999999999993 C 35.71999999999997 44.71999999999993 37.03999999999997 41.769999999999925 39.16999999999997 39.63999999999993 C 41.299999999999976 37.50999999999993 44.24999999999997 36.18999999999993 47.49999999999997 36.18999999999993 C 50.15999999999997 36.18999999999993 52.61999999999997 37.06999999999993 54.589999999999975 38.559999999999924 C 56.42999999999998 37.019999999999925 58.369999999999976 35.479999999999926 60.41999999999997 33.95999999999992 C 66.55999999999997 29.409999999999922 73.65999999999997 25.03999999999992 81.88999999999997 21.209999999999923 C 89.54999999999997 17.639999999999922 98.20999999999998 14.529999999999923 106.98999999999998 11.939999999999923 C 116.96999999999998 8.989999999999924 127.09999999999998 6.719999999999923 136.08999999999997 5.199999999999923 C 144.52999999999997 3.779999999999923 151.96999999999997 3.0199999999999227 158.90999999999997 2.599999999999923 C 165.72999999999996 2.179999999999923 172.13999999999996 2.099999999999923 178.52999999999997 2.009999999999923 L 178.55999999999997 2.009999999999923 L 178.55999999999997 2.009999999999923 L 178.59999999999997 2.009999999999923 L 178.63999999999996 2.009999999999923 L 178.63999999999996 2.009999999999923 L 178.65999999999997 2.009999999999923 C 178.96999999999997 2.009999999999923 179.26999999999998 2.099999999999923 179.53999999999996 2.269999999999923 L 179.53999999999996 2.269999999999923 L 179.55999999999997 2.279999999999923 C 179.59999999999997 2.309999999999923 179.64 2.329999999999923 179.67 2.359999999999923 L 179.73 2.409999999999923 L 179.73 2.409999999999923 L 179.76 2.429999999999923 L 179.76999999999998 2.429999999999923 L 179.79 2.449999999999923 C 179.81 2.469999999999923 179.82999999999998 2.489999999999923 179.85 2.509999999999923 L 179.85999999999999 2.5199999999999227 L 179.88 2.5399999999999228 C 180.07 2.7499999999999227 180.2 3.0099999999999225 180.26 3.2699999999999227 L 180.26 3.2899999999999228 L 180.26 3.309999999999923 L 180.26999999999998 3.349999999999923 L 180.26999999999998 3.349999999999923 L 180.26999999999998 3.369999999999923 L 180.26999999999998 3.389999999999923 L 180.26999999999998 3.409999999999923 L 180.26999999999998 3.429999999999923 L 180.26999999999998 3.449999999999923 L 180.26999999999998 3.469999999999923 L 180.26999999999998 3.489999999999923 L 180.26999999999998 3.509999999999923 L 180.26999999999998 3.549999999999923 L 180.26999999999998 3.569999999999923 L 180.26999999999998 3.589999999999923 L 180.26999999999998 3.629999999999923 L 180.26999999999998 3.649999999999923 L 180.26999999999998 3.669999999999923 C 180.26 3.979999999999923 180.17 4.289999999999923 179.98999999999998 4.559999999999923 L 179.98999999999998 4.559999999999923 C 179.96999999999997 4.5899999999999235 179.93999999999997 4.6299999999999235 179.92 4.659999999999923 L 131.54 65.43999999999993 L 184.24 83.56999999999992 L 184.24 83.56999999999992 L 184.24 83.56999999999992 L 184.24 83.56999999999992 L 184.24 83.56999999999992 L 184.24 83.56999999999992 L 184.24 83.56999999999992 L 184.24 83.56999999999992 z M 57.77999999999989 53.649999999999984 L 84.60999999999989 73.76999999999998 L 98.60999999999989 52.12999999999998 C 98.16999999999989 51.76999999999998 97.73999999999988 51.38999999999998 97.33999999999989 50.98999999999998 C 94.4599999999999 48.10999999999998 92.6799999999999 44.13999999999998 92.6799999999999 39.74999999999998 C 92.6799999999999 35.35999999999998 94.4599999999999 31.38999999999998 97.33999999999989 28.509999999999977 C 100.21999999999989 25.629999999999978 104.18999999999988 23.849999999999977 108.57999999999988 23.849999999999977 C 112.96999999999989 23.849999999999977 116.93999999999988 25.629999999999978 119.81999999999988 28.509999999999977 C 120.58999999999988 29.279999999999976 121.27999999999987 30.129999999999978 121.87999999999988 31.039999999999978 L 171.60999999999987 5.399999999999977 C 167.55999999999986 5.479999999999977 163.42999999999986 5.619999999999977 159.06999999999988 5.879999999999978 C 152.2499999999999 6.299999999999978 144.91999999999987 7.039999999999978 136.59999999999988 8.439999999999978 C 127.72999999999988 9.939999999999978 117.72999999999988 12.179999999999978 107.88999999999987 15.089999999999979 C 99.28999999999988 17.629999999999978 90.78999999999988 20.689999999999976 83.24999999999987 24.199999999999978 C 75.20999999999987 27.939999999999976 68.29999999999987 32.199999999999974 62.34999999999987 36.60999999999998 C 60.42999999999987 38.02999999999998 58.60999999999987 39.46999999999998 56.88999999999987 40.909999999999975 C 58.36999999999987 42.879999999999974 59.24999999999987 45.32999999999998 59.24999999999987 47.979999999999976 C 59.24999999999987 50.03999999999998 58.71999999999987 51.96999999999998 57.77999999999987 53.659999999999975 z" stroke-linecap="round" />
</g>
</g>
</g>
</svg>